<?xml version="1.0" encoding="UTF-8"?>
<svg width="10px" height="7px" viewBox="0 0 10 7" version="1.1" xmlns="http://www.w3.org/2000/svg" xmlns:xlink="http://www.w3.org/1999/xlink">
    <!-- Generator: Sketch 40.3 (33839) - http://www.bohemiancoding.com/sketch -->
    <title>Fill 1</title>
    <desc>Created with Sketch.</desc>
    <defs></defs>
    <g id="Page-1" stroke="none" stroke-width="1" fill="none" fill-rule="evenodd">
        <g id="Artboard" transform="translate(-187.000000, -227.000000)" fill="#3B76FF">
            <g id="Page-1" transform="translate(187.000000, 227.000000)">
                <path d="M4.46879667,6.27950698 C4.61439889,6.42709918 4.79169683,6.5004 4.9997,6.5004 C5.20869366,6.5004 5.3859916,6.42709918 5.53159382,6.27950698 L9.78179192,1.98744663 C9.92739414,1.84084499 9.9997,1.66155514 9.9997,1.45155818 C9.9997,1.24156123 9.92739414,1.06227138 9.78179192,0.914679183 L9.06269525,0.220302469 C8.91709303,0.0737008229 8.73979509,0.0004 8.53179192,0.0004 C8.32279826,0.0004 8.14550032,0.0737008229 7.9998981,0.220302469 L4.9997,3.2504 L2.00049239,0.220302469 C1.85389968,0.0737008229 1.67759223,0.0004 1.46859857,0.0004 C1.2605954,0.0004 1.08329746,0.0737008229 0.937695246,0.220302469 L0.218598574,0.914679183 C0.072996355,1.06227138 -0.0003,1.24156123 -0.0003,1.45155818 C-0.0003,1.66155514 0.072996355,1.84084499 0.218598574,1.98744663 L4.46879667,6.27950698 Z" id="Fill-1"></path>
            </g>
        </g>
    </g>
</svg>