<?xml version="1.0" encoding="UTF-8"?>
<svg width="14px" height="16px" viewBox="0 0 14 16" version="1.1" xmlns="http://www.w3.org/2000/svg" xmlns:xlink="http://www.w3.org/1999/xlink">
    <!-- Generator: Sketch 40.3 (33839) - http://www.bohemiancoding.com/sketch -->
    <title> copy</title>
    <desc>Created with Sketch.</desc>
    <defs></defs>
    <g id="Page-1" stroke="none" stroke-width="1" fill="none" fill-rule="evenodd">
        <g id="Artboard" transform="translate(-270.000000, -172.000000)" fill="#3F7BFE">
            <path d="M282.49997,174.000029 C282.916636,174.000029 283.270802,174.145862 283.562468,174.437528 C283.854133,174.729193 283.999967,175.08336 283.999967,175.500025 L283.999967,186.499999 C283.999967,186.916664 283.854133,187.27083 283.562468,187.562496 C283.270802,187.854162 282.916636,187.999995 282.49997,187.999995 L271.499996,187.999995 C271.083331,187.999995 270.729165,187.854162 270.437499,187.562496 C270.145833,187.27083 270,186.916664 270,186.499999 L270,175.500025 C270,175.08336 270.145833,174.729193 270.437499,174.437528 C270.729165,174.145862 271.083331,174.000029 271.499996,174.000029 L272.999993,174.000029 L272.999993,172.375032 C272.999993,172.270866 273.036451,172.182324 273.109368,172.109408 C273.182284,172.036492 273.270826,172.000033 273.374992,172.000033 L274.624989,172.000033 C274.729155,172.000033 274.817697,172.036492 274.890613,172.109408 C274.96353,172.182324 274.999988,172.270866 274.999988,172.375032 L274.999988,174.000029 L278.999979,174.000029 L278.999979,172.375032 C278.999979,172.270866 279.036437,172.182324 279.109353,172.109408 C279.18227,172.036492 279.270811,172.000033 279.374978,172.000033 L280.624975,172.000033 C280.729141,172.000033 280.817683,172.036492 280.890599,172.109408 C280.963515,172.182324 280.999974,172.270866 280.999974,172.375032 L280.999974,174.000029 L282.49997,174.000029 Z M282.312471,186.499999 C282.354137,186.499999 282.395804,186.479165 282.43747,186.437499 C282.479137,186.395833 282.49997,186.354166 282.49997,186.312499 L282.49997,177.000021 L271.499996,177.000021 L271.499996,186.312499 C271.499996,186.354166 271.52083,186.395833 271.562496,186.437499 C271.604163,186.479165 271.64583,186.499999 271.687496,186.499999 L282.312471,186.499999 Z" id="-copy"></path>
        </g>
    </g>
</svg>