<?xml version="1.0" encoding="UTF-8"?>
<svg width="14px" height="16px" viewBox="0 0 14 16" version="1.1" xmlns="http://www.w3.org/2000/svg" xmlns:xlink="http://www.w3.org/1999/xlink">
    <!-- Generator: Sketch 40.3 (33839) - http://www.bohemiancoding.com/sketch -->
    <title></title>
    <desc>Created with Sketch.</desc>
    <defs></defs>
    <g id="Page-1" stroke="none" stroke-width="1" fill="none" fill-rule="evenodd">
        <g id="Artboard" transform="translate(-196.000000, -172.000000)" fill="#000000">
            <path d="M208.49997,174.000029 C208.916636,174.000029 209.270802,174.145862 209.562468,174.437528 C209.854133,174.729193 209.999967,175.08336 209.999967,175.500025 L209.999967,186.499999 C209.999967,186.916664 209.854133,187.27083 209.562468,187.562496 C209.270802,187.854162 208.916636,187.999995 208.49997,187.999995 L197.499996,187.999995 C197.083331,187.999995 196.729165,187.854162 196.437499,187.562496 C196.145833,187.27083 196,186.916664 196,186.499999 L196,175.500025 C196,175.08336 196.145833,174.729193 196.437499,174.437528 C196.729165,174.145862 197.083331,174.000029 197.499996,174.000029 L198.999993,174.000029 L198.999993,172.375032 C198.999993,172.270866 199.036451,172.182324 199.109368,172.109408 C199.182284,172.036492 199.270826,172.000033 199.374992,172.000033 L200.624989,172.000033 C200.729155,172.000033 200.817697,172.036492 200.890613,172.109408 C200.96353,172.182324 200.999988,172.270866 200.999988,172.375032 L200.999988,174.000029 L204.999979,174.000029 L204.999979,172.375032 C204.999979,172.270866 205.036437,172.182324 205.109353,172.109408 C205.18227,172.036492 205.270811,172.000033 205.374978,172.000033 L206.624975,172.000033 C206.729141,172.000033 206.817683,172.036492 206.890599,172.109408 C206.963515,172.182324 206.999974,172.270866 206.999974,172.375032 L206.999974,174.000029 L208.49997,174.000029 Z M208.312471,186.499999 C208.354137,186.499999 208.395804,186.479165 208.43747,186.437499 C208.479137,186.395833 208.49997,186.354166 208.49997,186.312499 L208.49997,177.000021 L197.499996,177.000021 L197.499996,186.312499 C197.499996,186.354166 197.52083,186.395833 197.562496,186.437499 C197.604163,186.479165 197.64583,186.499999 197.687496,186.499999 L208.312471,186.499999 Z" id=""></path>
        </g>
    </g>
</svg>
